<svg width="1440" height="960" viewBox="0 0 1440 960" fill="none" xmlns="http://www.w3.org/2000/svg">
  <rect width="1440" height="960" rx="48" fill="#0D0D14"/>
  <rect x="64" y="64" width="1312" height="832" rx="32" fill="url(#bg)"/>
  <circle cx="1100" cy="220" r="220" fill="#6D5EF8" fill-opacity="0.35"/>
  <circle cx="340" cy="760" r="240" fill="#2ED3F6" fill-opacity="0.18"/>
  <rect x="140" y="170" width="360" height="18" rx="9" fill="#F5F5F7" fill-opacity="0.9"/>
  <rect x="140" y="216" width="520" height="72" rx="18" fill="#F5F5F7" fill-opacity="0.1"/>
  <rect x="140" y="312" width="440" height="18" rx="9" fill="#F5F5F7" fill-opacity="0.5"/>
  <rect x="140" y="356" width="390" height="18" rx="9" fill="#F5F5F7" fill-opacity="0.35"/>
  <rect x="140" y="432" width="170" height="52" rx="26" fill="#6D5EF8"/>
  <rect x="140" y="550" width="520" height="220" rx="28" fill="#151524"/>
  <rect x="720" y="216" width="520" height="554" rx="36" fill="#131320" stroke="#2B2B3A"/>
  <path d="M805 634C862 515 961 462 1036 485C1102 505 1154 575 1167 666" stroke="#8F87FF" stroke-width="4" stroke-linecap="round"/>
  <circle cx="892" cy="603" r="10" fill="#2ED3F6"/>
  <circle cx="1001" cy="540" r="10" fill="#6D5EF8"/>
  <circle cx="1116" cy="606" r="10" fill="#FF76B8"/>
  <defs>
    <linearGradient id="bg" x1="64" y1="64" x2="1376" y2="896" gradientUnits="userSpaceOnUse">
      <stop stop-color="#11111C"/>
      <stop offset="0.5" stop-color="#18182A"/>
      <stop offset="1" stop-color="#0B0B13"/>
    </linearGradient>
  </defs>
</svg>
