<svg width="390" height="844" viewBox="0 0 390 844" fill="none" xmlns="http://www.w3.org/2000/svg">
  <rect width="390" height="844" rx="32" fill="#0D0D14"/>
  <rect x="24" y="24" width="342" height="796" rx="28" fill="url(#bg)"/>
  <circle cx="292" cy="178" r="92" fill="#6D5EF8" fill-opacity="0.35"/>
  <rect x="52" y="94" width="172" height="12" rx="6" fill="#F5F5F7" fill-opacity="0.8"/>
  <rect x="52" y="128" width="220" height="42" rx="14" fill="#F5F5F7" fill-opacity="0.1"/>
  <rect x="52" y="198" width="190" height="12" rx="6" fill="#F5F5F7" fill-opacity="0.42"/>
  <rect x="52" y="230" width="156" height="12" rx="6" fill="#F5F5F7" fill-opacity="0.28"/>
  <rect x="52" y="278" width="112" height="42" rx="21" fill="#6D5EF8"/>
  <rect x="52" y="368" width="286" height="324" rx="24" fill="#121220" stroke="#2B2B3A"/>
  <path d="M90 593C130 525 184 494 228 505C269 515 302 553 314 608" stroke="#8F87FF" stroke-width="3" stroke-linecap="round"/>
  <circle cx="140" cy="566" r="7" fill="#2ED3F6"/>
  <circle cx="211" cy="535" r="7" fill="#6D5EF8"/>
  <circle cx="286" cy="578" r="7" fill="#FF76B8"/>
  <defs>
    <linearGradient id="bg" x1="24" y1="24" x2="366" y2="820" gradientUnits="userSpaceOnUse">
      <stop stop-color="#11111C"/>
      <stop offset="0.5" stop-color="#18182A"/>
      <stop offset="1" stop-color="#0B0B13"/>
    </linearGradient>
  </defs>
</svg>
